#!OML:ASF H:\Dans Jumps\Project 1\Capture day 1\Session 1\subject.ASF
:FULLY-SPECIFIED
:DEGREES
81
root 0.290706 17.5897 -13.819 7.43356 0.256327 -1.28675
lowerback -2.94393 -0.172659 0.101326
upperback 2.70224 -0.29585 1.48349
thorax 4.44587 -0.16944 1.455
lowerneck -13.996 0.0655 -1.91533
upperneck 29.2593 0.232825 1.24965
head 11.8981 0.052243 0.830913
rclavicle 2.5842e-015 -1.78906e-015
rhumerus -22.4265 -18.7715 -83.0455
rradius 20.1485
rwrist 38.919
rhand -18.6017 -26.4532
rfingers 7.12502
rthumb 7.6896 -56.2934
lclavicle 2.5842e-015 -1.78906e-015
lhumerus -20.3146 -5.92336 93.3147
lradius 15.2725
lwrist -1.68702
lhand -25.0248 -4.48578
lfingers 7.12502
lthumb 1.48766 25.4888
rfemur -12.3115 -2.91003 19.4315
rtibia 19.7591
rfoot -13.8894 -3.02317
rtoes 10.9426
lfemur -10.698 6.82127 -17.726
ltibia 16.9444
lfoot -10.4555 7.03549
ltoes -3.35426
82
root 0.289008 17.5894 -13.8205 7.4256 0.293542 -1.29124
lowerback -2.94517 -0.1799 0.098735
upperback 2.69915 -0.305656 1.49083
thorax 4.44368 -0.174503 1.46338
lowerneck -13.9983 0.0702847 -1.92428
upperneck 29.2758 0.237827 1.2642
head 11.905 0.0553091 0.838766
rclavicle 7.45443e-016 4.17448e-015
rhumerus -22.4182 -18.7499 -82.9833
rradius 20.146
rwrist 38.8824
rhand -18.6199 -26.4285
rfingers 7.12502
rthumb 7.67206 -56.2693
lclavicle 7.45443e-016 4.17448e-015
lhumerus -20.1715 -5.74972 93.1622
lradius 15.2278
lwrist -1.88625
lhand -24.8807 -4.18773
lfingers 7.12502
lthumb 1.62678 25.7858
rfemur -12.3038 -2.92562 19.4444
rtibia 19.7599
rfoot -13.8915 -3.04444
rtoes 10.931
lfemur -10.7113 6.80601 -17.7129
ltibia 16.9644
lfoot -10.4591 7.01678
ltoes -3.37345
83
root 0.287324 17.5892 -13.8222 7.4179 0.329234 -1.29429
lowerback -2.94634 -0.188918 0.0936057
upperback 2.69516 -0.317691 1.49809
thorax 4.44058 -0.180748 1.47294
lowerneck -13.9994 0.0761443 -1.9352
upperneck 29.2918 0.24469 1.2793
head 11.9113 0.059043 0.847417
rclavicle 2.83268e-015 4.77083e-015
rhumerus -22.3961 -18.7483 -82.9206
rradius 20.1351
rwrist 38.8703
rhand -18.6455 -26.3882
rfingers 7.12502
rthumb 7.64735 -56.2299
lclavicle 2.83268e-015 4.77083e-015
lhumerus -20.0227 -5.55974 93.0079
lradius 15.1867
lwrist -2.08175
lhand -24.7713 -3.93393
lfingers 7.12502
lthumb 1.73241 26.0388
rfemur -12.2976 -2.93898 19.4556
rtibia 19.7614
rfoot -13.8932 -3.06512
rtoes 10.9286
lfemur -10.725 6.79192 -17.7016
ltibia 16.9837
lfoot -10.4617 6.99856
ltoes -3.3933
84
root 0.285617 17.5891 -13.824 7.41098 0.362395 -1.29785
lowerback -2.94849 -0.198272 0.088235
upperback 2.69058 -0.33016 1.50521
thorax 4.43744 -0.187211 1.48246
lowerneck -14 0.0822387 -1.94581
upperneck 29.3073 0.252246 1.29286
head 11.9174 0.0629194 0.855536
rclavicle -4.72114e-015 7.55382e-015
rhumerus -22.363 -18.7571 -82.861
rradius 20.1235
rwrist 38.8754
rhand -18.6638 -26.3559
rfingers 7.12502
rthumb 7.6297 -56.1983
lclavicle -4.72114e-015 7.55382e-015
lhumerus -19.8672 -5.36409 92.8551
lradius 15.1495
lwrist -2.25359
lhand -24.7709 -3.85314
lfingers 7.12502
lthumb 1.73286 26.1196
rfemur -12.2932 -2.94606 19.4671
rtibia 19.7639
rfoot -13.8937 -3.08753
rtoes 10.9327
lfemur -10.7391 6.77717 -17.6897
ltibia 17.0014
lfoot -10.4631 6.98311
ltoes -3.40554
85
root 0.28396 17.589 -13.8259 7.40328 0.392097 -1.301
lowerback -2.95142 -0.207643 0.0829881
upperback 2.68655 -0.342641 1.51154
thorax 4.43533 -0.193668 1.49109
lowerneck -14.0007 0.0899479 -1.95141
upperneck 29.3239 0.262474 1.30078
head 11.9238 0.0678106 0.861062
rclavicle 2.33572e-015 8.94531e-015
rhumerus -22.3178 -18.776 -82.8053
rradius 20.1084
rwrist 38.8967
rhand -18.6648 -26.3545
rfingers 7.12502
rthumb 7.62865 -56.1969
lclavicle 2.33572e-015 8.94531e-015
lhumerus -19.7066 -5.17547 92.7062
lradius 15.1224
lwrist -2.37607
lhand -24.749 -3.74095
lfingers 7.12502
lthumb 1.75395 26.2316
rfemur -12.2896 -2.95071 19.4777
rtibia 19.7678
rfoot -13.894 -3.10859
rtoes 10.9387
lfemur -10.7508 6.76346 -17.6782
ltibia 17.0171
lfoot -10.4663 6.96829
ltoes -3.40344
86
root 0.282399 17.5889 -13.8279 7.39472 0.417793 -1.30258
lowerback -2.95745 -0.216248 0.0789209
upperback 2.68503 -0.354115 1.51518
thorax 4.43752 -0.199562 1.49636
lowerneck -14.0025 0.097589 -1.95283
upperneck 29.3387 0.272014 1.30692
head 11.9298 0.0726337 0.865096
rclavicle 2.48481e-016 -7.95139e-016
rhumerus -22.2604 -18.8049 -82.7563
rradius 20.0959
rwrist 38.9351
rhand -18.6834 -26.3561
rfingers 7.12502
rthumb 7.61072 -56.1992
lclavicle 2.48481e-016 -7.95139e-016
lhumerus -19.5363 -4.99492 92.5589
lradius 15.1028
lwrist -2.46295
lhand -24.8185 -3.7818
lfingers 7.12502
lthumb 1.68685 26.1913
rfemur -12.2864 -2.9533 19.486
rtibia 19.773
rfoot -13.8936 -3.12742
rtoes 10.9434
lfemur -10.7601 6.74811 -17.6687
ltibia 17.0312
lfoot -10.4689 6.95862
ltoes -3.40008
87
root 0.280929 17.5887 -13.8299 7.38534 0.437309 -1.30396
lowerback -2.96499 -0.223659 0.0758684
upperback 2.68572 -0.364042 1.51759
thorax 4.44283 -0.204651 1.49988
lowerneck -14.0097 0.105776 -1.95187
upperneck 29.3548 0.282876 1.30953
head 11.9374 0.0778555 0.867624
rclavicle 6.4605e-015 -1.15295e-014
rhumerus -22.1899 -18.838 -82.7149
rradius 20.0855
rwrist 38.9861
rhand -18.673 -26.3927
rfingers 7.12502
rthumb 7.62074 -56.2354
lclavicle 6.4605e-015 -1.15295e-014
lhumerus -19.3604 -4.83379 92.4172
lradius 15.0946
lwrist -2.51794
lhand -24.8775 -3.81167
lfingers 7.12502
lthumb 1.62991 26.1619
rfemur -12.2839 -2.95232 19.4931
rtibia 19.7802
rfoot -13.894 -3.14313
rtoes 10.9548
lfemur -10.7669 6.73613 -17.6601
ltibia 17.0438
lfoot -10.4714 6.95218
ltoes -3.39932
